{"title":"Resident Evil Retribution 2012 TS x264 AAC-UNiQUE","uid":7639624,"size":1566831642,"categoryP":"video","categoryS":"movies","magnet":"?xt=urn:btih:66e0160ea8de85a456503d2b6e7caeacbc4e41ee&amp;dn=Resident+Evil+Retribution+2012+TS+x264+AAC-UNiQUE&amp;tr=udp%3A%2F%2Ftracker.openbittorrent.com%3A80&amp;tr=udp%3A%2F%2Fopen.demonii.com%3A1337&amp;tr=udp%3A%2F%2Ftracker.coppersurfer.tk%3A6969&amp;tr=udp%3A%2F%2Fexodus.desync.com%3A6969","seeders":8,"leechers":0,"uploader":"Hackulus","files":-1,"time":1347743212,"description":"\n\nGeneral\nComplete name                            : Resident Evil Retribution TS x264 AAC-UNiQUE.mp4\nFormat                                   : MPEG-4\nFormat profile                           : Base Media\nCodec ID                                 : isom\nFile size                                : 1.44 GiB\nDuration                                 : 1h 24mn\nOverall bit rate mode                    : Variable\nOverall bit rate                         : 2 425 Kbps\nEncoded date                             : UTC 2012-09-15 12:21:45\n\nVideo\nID                                       : 1\nFormat                                   : AVC\nFormat/Info                              : Advanced Video Codec\nFormat profile                           : &lt;a class=&quot;__cf_email__&quot; href=&quot;/cdn-cgi/l/email-protection&quot; data-cfemail=&quot;d991b0beb19995edf7e8&quot;&gt;[email&amp;#160;protected]&lt;/a&gt;&lt;script cf-hash='f9e31' type=&quot;text/javascript&quot;&gt;\n/* &lt;![CDATA[ */!function(){try{var t=&quot;currentScript&quot;in document?document.currentScript:function(){for(var t=document.getElementsByTagName(&quot;script&quot;),e=t.length;e--;)if(t[e].getAttribute(&quot;cf-hash&quot;))return t[e]}();if(t&amp;&amp;t.previousSibling){var e,r,n,i,c=t.previousSibling,a=c.getAttribute(&quot;data-cfemail&quot;);if(a){for(e=&quot;&quot;,r=parseInt(a.substr(0,2),16),n=2;a.length-n;n+=2)i=parseInt(a.substr(n,2),16)^r,e+=String.fromCharCode(i);e=document.createTextNode(e),c.parentNode.replaceChild(e,c)}}}catch(u){}}();/* ]]&gt; */&lt;/script&gt;\nFormat settings, CABAC                   : Yes\nFormat settings, ReFrames                : 3 frames\nCodec ID                                 : avc1\nCodec ID/Info                            : Advanced Video Coding\nDuration                                 : 1h 24mn\nBit rate mode                            : Variable\nBit rate                                 : 2 296 Kbps\nMaximum bit rate                         : 40.0 Mbps\nWidth                                    : 720 pixels\nHeight                                   : 304 pixels\nDisplay aspect ratio                     : 2.35:1\nFrame rate mode                          : Constant\nFrame rate                               : 25.000 fps\nColor space                              : YUV\nChroma subsampling                       : 4:2:0\nBit depth                                : 8 bits\nScan type                                : Progressive\nBits/(Pixel*Frame)                       : 0.420\nStream size                              : 1.36 GiB (95%)\nWriting library                          : x264 core 125 r2208 d9d2288\n\nAudio\nID                                       : 2\nFormat                                   : AAC\nFormat/Info                              : Advanced Audio Codec\nFormat profile                           : LC\nCodec ID                                 : 40\nDuration                                 : 1h 24mn\n\n\nBit rate mode                            : Variable\nBit rate                                 : 125 Kbps\nMaximum bit rate                         : 148 Kbps\nChannel(s)                               : 2 channels\nChannel positions                        : Front: L R\nSampling rate                            : 48.0 KHz\nCompression mode                         : Lossy\nStream size                              : 76.1 MiB (5%)\nLanguage                                 : English\nEncoded date                             : UTC 2012-09-15 12:22:18\n\nSource                            : Video - Obitel.Zla.Vozmezdie.2012.D.CAMRip - Thanks!\n                                        : Audio - Toothfairy - Thanks!                                    \n\nStoryline\nAlice fights alongside a resistance movement in the continuing battle against the Umbrella Corporation and the undead.\n\niMDB: http://www.imdb.com/title/tt1855325/\n","torrent":{"xt":"urn:btih:66e0160ea8de85a456503d2b6e7caeacbc4e41ee","amp;dn":"Resident+Evil+Retribution+2012+TS+x264+AAC-UNiQUE","amp;tr":["udp%3A%2F%2Ftracker.openbittorrent.com%3A80","udp%3A%2F%2Fopen.demonii.com%3A1337","udp%3A%2F%2Ftracker.coppersurfer.tk%3A6969","udp%3A%2F%2Fexodus.desync.com%3A6969"],"infoHash":"66e0160ea8de85a456503d2b6e7caeacbc4e41ee","infoHashBuffer":{"type":"Buffer","data":[102,224,22,14,168,222,133,164,86,80,61,43,110,124,174,172,188,78,65,238]},"announce":[],"urlList":[]}}